# xmcd CD database file
#
# Track frame offsets:
#	150
#	24315
#	45150
#	63830
#	91955
#	116705
#	135750
#	158025
#	186395
#	208810
#	234495
#	253775
#	278850
#
# Disc length: 4002 seconds
#
# Revision: 0
# Processed by: cddbd v1.5.1PL0 Copyright (c) Steve Scherf et al.
# Submitted via: CDex 1.60beta1
#
DISCID=a90fa00d
DTITLE=Various Artist - GRP and Wnua 95.5 Present Music For A New Age
DYEAR=1900
DGENRE=Jazz
TTITLE0=Djavan/Asa
TTITLE1=David Benoit/Kei's Song
TTITLE2=Darryl Roberts and Marilyn McLeod - Same Ole Love
TTITLE3=Dave Grusin/Mountain Dance
TTITLE4=Chieli Minucci/Hands Of The Healer
TTITLE5=Chick Corea - Second Sight
TTITLE6=Ted Lo - Feel Like Jazz
TTITLE7=Tom Scott/Say You Love Me
TTITLE8=Dave Grusin/Early A.M. Attitude
TTITLE9=Onaje Allan Gumbs/Palace Of The Seven Jewels
TTITLE10=Dave Grusin/Theme From "St. Elsewhere"
TTITLE11=Paul Williams, Ivan Lins, Vitor Martins - Love Dance
TTITLE12=Lee Ritenour - Runaway
EXTD=
EXTT0=
EXTT1=
EXTT2=
EXTT3=
EXTT4=
EXTT5=
EXTT6=
EXTT7=
EXTT8=
EXTT9=
EXTT10=
EXTT11=
EXTT12=
PLAYORDER=
